<?xml version="1.0" encoding="UTF-8"?>
<svg width="752pt" height="752pt" version="1.1" viewBox="0 0 752 752" xmlns="http://www.w3.org/2000/svg">
 <g>
  <path d="m429.52 336.22-128.81-168.59-133.08 164.33 28.414 28.418 25.102-7.5781v-22.734l80.508-97.082 102.77 142.55 158.18-53.516 21.785-33.621z"/>
  <path d="m579.64 278.45-113.18-127.39-154.86 13.262 121.24 157.7z"/>
  <path d="m467.4 367v16.102l27.941 4.2617 0.94531-31.258z"/>
  <path d="m505.76 394-80.98 32.676v-46.883l-26.992 8.9961-9.4727-15.156v32.676l0.47266 140.19-10.418-10.418-2.3711-179.02-75.297-107.98-69.617 90.453 0.94531 41.676c-13.262 1.4219-24.625 8.0508-29.836 17.996-1.4219 2.8398-1.8945 5.6836-1.4219 8.9961-3.3164 0.94531-9.4727 3.3164-17.523 8.5234-0.47266 0.47266-0.47266 1.4219 0.47266 1.4219 4.7344 0.47266 15.629 1.4219 22.73 1.4219 1.4219 1.4219 3.3164 3.3164 5.6836 4.7344 1.8945 1.4219 3.7891 3.3164 5.6836 4.7344 2.3672 1.8945 5.6836 4.2617 7.1055 6.1562 0 0.94531-0.47266 1.8945-0.47266 2.8398-1.8945 8.5234-4.7344 23.207 9.9453 38.832l1.8945 66.773 107.03 26.047c20.363 30.781 24.152 31.258 26.047 31.258h1.4219c6.1562 0 8.5234-4.7344 10.418-8.0508 0.47266-1.4219 0.94531-2.3672 1.8945-3.7891 1.8945-3.3164 2.3672-3.7891 9.9453-0.94531 2.8398 0.94531 5.2109 0.47266 7.5781-0.94531 4.7344-3.3164 6.6289-10.891 7.1055-15.629l130.71-48.773v-181.38l-32.68 10.895zm-197.96-46.883c17.523 0 31.258 16.574 31.258 36.938 0 17.523-10.418 32.203-24.625 35.992-0.94531-1.4219-1.8945-3.3164-2.8398-4.7344 3.3164-0.47266 6.1562-1.4219 8.0508-2.8398 0 0-8.5234-1.8945-16.102-7.1055-1.8945-2.3672-3.7891-4.2617-5.6836-6.1562-2.3672-3.7891-4.2617-8.0508-4.2617-13.734-0.47266-22.258 12.785-28.887 22.73-30.309 0 0-5.6836-3.7891-15.156-1.4219-7.1055 1.4219-21.785 11.367-19.418 35.992v0.94531c-1.8945-0.47266-3.7891-0.47266-5.207-0.47266-0.47266-1.8945-0.47266-3.7891-0.47266-5.6836-0.003906-20.836 14.207-37.41 31.727-37.41zm-74.352 85.246c-1.4219-4.2617-9.9453-9.4727-16.574-14.68-7.1055-4.2617-8.0508-9.9453-8.0508-9.9453-0.47266-1.4219 0-2.8398 0.47266-4.7344 4.7344-8.9961 16.574-13.734 27.941-13.734 1.8945 0 4.2617 0 6.1562 0.47266 13.262 1.8945 23.68 11.367 23.68 11.367 2.8398-1.8945 6.1562-2.8398 8.9961-2.8398 19.418 0 36.938 36.465 39.781 42.621 3.3164 7.1055 23.207 70.562 22.258 76.246 0 0.94531-0.94531 1.4219-2.3672 1.4219-4.7344 0-17.996-6.1562-44.988-18.941 0.47266-0.47266 0-0.47266-0.94531-0.94531l-18.941-8.5234c-0.94531-0.47266-1.8945-0.94531-2.8398-1.4219-53.047-24.16-31.734-48.789-34.578-56.363zm42.621 73.875c0.94531 0.94531 0.47266 2.8398-1.4219 2.8398-1.8945 0-3.7891-1.4219-6.6289-6.6289-0.94531-1.8906-0.94531-3.3125-0.94531-4.2617h0.47266l6.1562 2.8398c0 2.3711 2.3672 5.2109 2.3672 5.2109zm119.34 73.879c-8.5234-2.8398-14.207-3.7891-19.418 4.7344-0.94531 1.8945-1.8945 3.3164-2.3672 4.7344-1.4219 2.8398-1.4219 3.3164-2.8398 3.3164-5.2109-4.2617-26.992-36.938-46.883-69.145 2.8398 0.94531 5.2109 1.8945 7.5781 2.3672l34.57 46.41c0.94531 0.94531 1.8945 1.8945 3.3164 1.8945 0.94531 0 1.8945-0.47266 2.3672-0.94531 1.8945-1.4219 2.3672-3.7891 0.94531-5.6836l-30.781-41.676c3.3164-1.4219 5.2109-4.2617 5.6836-8.0508v-0.94531l52.094 51.621c-0.94922 5.6875-2.8438 10.895-4.2656 11.367z"/>
  <path d="m229.66 406.31c0 6.3125-9.4727 6.3125-9.4727 0 0-6.3164 9.4727-6.3164 9.4727 0"/>
 </g>
</svg>
