<?xml version="1.0" encoding="UTF-8"?>
<svg width="752pt" height="752pt" version="1.1" viewBox="0 0 752 752" xmlns="http://www.w3.org/2000/svg">
 <path d="m379.98 144.04c-0.99609 0-2.0391-0.097657-3.0781-0.097657h-0.37891-0.33203-0.09375-0.046875-0.046875c-127.96 0-232.06 104.09-232.06 232.05 0 28.699 5.2578 56.215 14.871 81.598 0.09375 0.37891 0.1875 0.71094 0.33203 1.0898 0.14062 0.33203 0.33203 0.66406 0.47266 0.94531 33.625 86.762 117.92 148.42 216.38 148.42h0.09375 0.046875 0.09375c97.414-0.09375 180.96-60.523 215.2-145.86 0.71094-1.4219 1.3242-2.793 1.7539-4.2148 0.046875-0.14062 0.046875-0.28516 0.09375-0.37891 9.5234-25.43 14.777-52.898 14.777-81.598 0-126.63-101.96-229.83-228.07-231.96zm-178.49 153.34c1.8477 0 3.5039 0.51953 5.0195 1.3242l45.273-42.102c-3.6484-4.9258-5.8242-10.988-5.8242-17.57 0-16.387 13.262-29.645 29.645-29.645 12.406 0 23.016 7.625 27.422 18.469l82.734-23.207c-0.14453-1.1328-0.28516-2.3164-0.28516-3.5 0-13.922 11.32-25.242 25.242-25.242s25.242 11.32 25.242 25.242c0 4.1211-0.99609 7.957-2.7461 11.414l66.16 39.023c2.793-2.5586 6.4883-4.168 10.562-4.168 8.668 0 15.723 7.0547 15.723 15.723 0 8.668-7.0547 15.723-15.723 15.723-8.668 0-15.723-7.0547-15.723-15.723 0-2.1797 0.42578-4.2617 1.2305-6.1094l-66.066-38.977c-4.0742 4.5-9.7539 7.5781-16.195 8.1914l-1.8945 60.191c10.133 1.8945 17.855 10.75 17.855 21.453 0 3.125-0.66406 6.1094-1.8945 8.8086l74.496 47.641c3.4102-3.6484 8.1914-5.918 13.59-5.918 10.277 0 18.562 8.3359 18.562 18.562 0 10.23-8.3359 18.562-18.562 18.562-10.277 0-18.562-8.3359-18.562-18.562 0-2.5117 0.51953-4.8789 1.375-7.0547l-74.453-47.547c-4.0273 4.5469-9.8516 7.4336-16.387 7.4336-5.6836 0-10.797-2.1797-14.68-5.6836l-45.273 36.609c2.793 4.4062 4.4062 9.6133 4.4062 15.203 0 15.77-12.785 28.559-28.559 28.559-15.77 0-28.559-12.785-28.559-28.559 0-15.77 12.785-28.559 28.559-28.559 7.7656 0 14.777 3.125 19.938 8.1445l45.273-36.559c-1.8945-3.2188-2.9844-6.9609-2.9844-10.988 0-11.176 8.3828-20.363 19.227-21.691l1.8945-60.238c-8.5703-1.4219-15.723-7.1523-19.086-14.918l-82.734 23.207c0.23828 1.5625 0.42578 3.125 0.42578 4.7344 0 8.9023-3.9297 16.812-10.133 22.258l15.723 22.637c1.7539-0.66406 3.5977-1.0898 5.5898-1.0898 8.668 0 15.723 7.0547 15.723 15.723s-7.0547 15.723-15.723 15.723-15.723-7.0547-15.723-15.723c0-4.3086 1.7539-8.1914 4.5469-11.035l-15.582-22.449c-4.168 2.2734-8.9492 3.5508-14.066 3.5508-7.3867 0-14.113-2.6992-19.273-7.1523l-45.227 42.102c0.61719 1.3242 0.94531 2.793 0.94531 4.3555 0 5.8242-4.7344 10.512-10.512 10.512-5.8242 0-10.512-4.7344-10.512-10.512 0.042968-5.8633 4.7305-10.598 10.559-10.598zm-29.648 156.99c-6.25-16.148-10.562-33.246-12.785-51.004 10.23 9.1406 25.43 17 44.09 23.535 3.9297 22.543 10.418 43.855 18.992 63.414-26.238-10.844-44.52-23.68-50.297-35.945zm45.75-22.828c17.711 5.1602 37.746 9.3281 59.055 12.457 3.1719 23.867 7.957 46.031 14.113 65.875-18.469-3.4102-35.613-7.8633-50.863-12.93-9.9922-19.793-17.57-41.863-22.305-65.402zm-29.27 56.594c11.648 7.293 26.047 13.969 42.434 19.75 14.965 27.801 34.477 51.148 57.113 68.242-41.531-18.375-76.34-49.301-99.547-87.992zm61.094 25.715c14.445 4.168 29.977 7.625 46.176 10.324 9.3281 25.43 21.121 46.223 34.57 60.715-32.016-12.551-60.051-37.648-80.746-71.039zm119.91 79.801c-0.94531-0.046875-1.8477-0.14062-2.7461-0.23828-21.453-5.7305-40.965-30.5-55.41-66.918 18.895 2.5117 38.504 3.8828 58.203 3.9766zm0-76.438c-21.926-0.09375-43.285-1.8477-63.414-4.832-6.6289-19.75-11.887-42.242-15.391-66.492 25.43 3.125 52.234 4.832 78.805 5.1133zm15.531 76.438c-0.71094 0.046875-1.4688 0.046875-2.1797 0.09375l0.003907-63.316c20.27-0.47266 40.02-2.1797 58.77-4.832-14.68 37.367-34.617 62.703-56.594 68.055zm-2.1758-76.578v-66.113c26.664-0.23828 53.516-1.9414 78.992-5.1133-3.457 23.773-8.5703 45.891-15.012 65.355-20.129 3.2188-41.676 5.3477-63.98 5.8711zm74.305 6.0117c17.379-3.0312 33.766-6.9141 48.684-11.367-21.359 35.281-50.77 61.66-84.535 74.117 14.066-14.727 26.238-36.227 35.852-62.75zm4.8789-14.586c5.9688-19.465 10.609-41.203 13.688-64.5 22.023-3.2188 42.668-7.5781 60.809-13.023-4.5469 22.875-11.793 44.281-21.312 63.602-15.727 5.3516-33.672 10.137-53.184 13.922zm6.9141 65.496c22.117-17.332 41.059-40.727 55.551-68.434 15.535-5.5898 29.031-11.84 39.875-18.375-22.305 37.699-55.598 68.105-95.426 86.809zm110.25-116.73c-5.2109 9.5664-21.879 20.742-46.363 30.781 8.1914-19.086 14.348-39.828 18.09-61.754 17.711-6.3945 32.203-13.969 42.102-22.73-2.3203 18.75-7.0117 36.746-13.828 53.703zm-202.93-15.914c-106.79 0-220.31-22.543-220.31-64.266 0-32.109 69.852-51.809 135.16-59.48 2.7461-0.33203 5.2109 1.6562 5.5391 4.3555 0.33203 2.7461-1.6562 5.2109-4.3555 5.5391-86.805 10.23-126.35 32.871-126.35 49.586 0 25.668 86.383 54.273 210.36 54.273 123.98 0 210.36-28.605 210.36-54.273 0-15.582-34.004-36.23-109.92-47.406-2.7461-0.37891-4.6406-2.9375-4.2148-5.6836 0.37891-2.7461 2.9375-4.6406 5.6836-4.2148 74.164 10.891 118.49 32.297 118.49 57.258-0.089844 41.77-113.61 64.312-220.45 64.312z"/>
</svg>
