<?xml version="1.0" encoding="UTF-8"?>
<svg width="752pt" height="752pt" version="1.1" viewBox="0 0 752 752" xmlns="http://www.w3.org/2000/svg">
 <defs>
  <clipPath id="b">
   <path d="m139.21 343h179.79v246h-179.79z"/>
  </clipPath>
  <clipPath id="a">
   <path d="m291 163h321.79v378h-321.79z"/>
  </clipPath>
 </defs>
 <g clip-path="url(#b)">
  <path d="m317.03 483.89-15.023-44.473c-4.1445-11.988-4.957-25.012-2.5156-37.441 2.8125-14.652 0.51953-30.117-6.5117-43.289l-6.2891-11.766c-2.5898-1.9961-5.4023-2.9609-8.6562-2.9609-0.51953 0-1.0352 0-1.6289 0.074218-11.098 0.96094-26.344 12.652-42.992 32.781-7.5469 9.25-16.574 16.574-26.859 21.828l-57.199 29.598c-7.8438 4.0703-11.84 13.246-9.3984 21.68 2.1445 7.6953 9.0273 13.246 17.02 13.617l12.578 0.59375c0.88672 0 1.7773 0.37109 2.3672 0.96094 0.44531 0.44531 11.027 10.508 13.91 22.793 1.1094 4.8828 2.5156 9.9141 5.1055 14.281l22.199 37.516c0.37109 0.73828 4.8086 10.953-1.8516 27.973-2.7383 6.8828-3.1836 12.062-1.5547 15.465 1.1094 2.3672 3.4766 4.0703 7.25 5.1055 7.1055 1.9961 15.168-0.074218 21.68-5.4766l12.062-9.9883c24.863-20.496 50.391-41.66 62.602-59.344 5.7773-8.3672 7.1836-19.391 3.707-29.527zm-47.656 41.809c-4.2188 3.625-9.3984 5.3281-14.578 5.3281-5.9922 0-11.988-2.293-16.426-6.7344-34.926-35.074-44.398-67.484-28.191-96.418 2.5156-4.5156 6.8828-7.6211 11.914-8.6562 5.0312-0.88672 10.137 0.29688 14.133 3.4766 15.465 12.43 27.305 46.102 38.848 78.512 0.88672 2.6641 1.4062 5.4023 1.4062 8.0664-0.074218 6.3594-2.5156 12.281-7.1055 16.426z"/>
 </g>
 <path d="m264.04 520.37c-5.5508 4.8828-14.727 4.293-20.422-1.4062-32.707-32.781-41.512-61.344-26.859-87.391 1.4062-2.5156 3.9219-4.3672 6.8086-4.8828 0.59375-0.14844 1.332-0.14844 1.9258-0.14844 2.2188 0 4.293 0.66406 6.0664 2.0703 6.8828 5.5508 13.32 16.871 19.387 30.562 6.0664 13.688 11.766 29.672 17.02 44.695 1.9961 5.8438 0.51562 12.43-3.9258 16.5z"/>
 <g clip-path="url(#a)">
  <path d="m545.75 163.11-254.4 177.89c0.22266 0.14844 0.44531 0.29688 0.66406 0.51953 0.37109 0.29688 0.66406 0.66406 0.88672 1.1094l6.6602 12.43c7.7695 14.727 10.359 31.965 7.1758 48.32-2.1445 11.172-1.4062 22.793 2.293 33.52l15.02 44.473c4.2188 12.43 2.5156 25.898-4.5156 36.109-2.0703 2.9609-4.4414 6.0664-7.1758 9.1758l13.617 13.543 19.609-6.2148 4.1445-23.012c0.29688-1.4062 1.2578-2.4414 2.5898-2.8867l21.09-6.957 4.6602-24.344c0.29688-1.4805 1.4062-2.5898 2.8867-2.8867l21.68-4.8828 4.4414-24.27c0.29688-1.4805 1.332-2.5898 2.7383-2.9609l22.199-6.0664 4.5156-23.68c0.29688-1.4062 1.332-2.4414 2.5898-2.8125l21.531-6.6602 5.4023-23.605c0.29688-1.4062 1.332-2.4414 2.6641-2.8125l21.387-5.918 5.6289-23.828c0.29688-1.4062 1.332-2.4414 2.6641-2.8125l21.977-5.918 4.293-24.492c0.29688-1.4805 1.4062-2.5898 2.7383-2.9609l21.461-5.7734 4.957-23.902c0.22266-1.4062 1.332-2.4414 2.5898-2.8867l21.68-6.4375 4.7344-22.125c0.29688-1.4062 1.332-2.4414 2.5898-2.8125l22.719-6.5859 4.6602-22.27zm-1.0352 43.953-213.78 158.8c-0.66406 0.44531-1.4805 0.66406-2.2188 0.66406-1.1094 0-2.293-0.51953-3.0352-1.5547-1.2578-1.6289-0.8125-3.9961 0.73828-5.1797l213.85-158.72c1.7031-1.2578 3.9961-0.88672 5.2539 0.73828 1.2578 1.7031 0.89062 4.0703-0.8125 5.2539zm30.117 35.148c-2.8125 2.8125-6.6602 4.4414-10.656 4.4414-4.0703 0-7.7695-1.6289-10.656-4.4414-5.918-5.918-5.918-15.465 0-21.312 5.625-5.625 15.613-5.625 21.238 0 5.918 5.9219 5.918 15.465 0.074219 21.312z"/>
 </g>
 <path d="m569.5 236.89c-2.8125 2.8125-7.7695 2.8125-10.656 0-2.8867-2.8867-2.8867-7.6211 0-10.656 1.4805-1.4805 3.2578-2.2188 5.3281-2.2188 1.9961 0 3.9219 0.73828 5.2539 2.2188 3.0352 3.0352 3.0352 7.7695 0.074218 10.656z"/>
</svg>
