<?xml version="1.0" encoding="UTF-8" standalone="no"?>
<svg xmlns:svg="http://www.w3.org/2000/svg" xmlns="http://www.w3.org/2000/svg" xmlns:xlink="http://www.w3.org/1999/xlink" version="1.0" width="48" height="48" id="revolution">
  <defs id="che">
    <linearGradient
       id="linearGradient3851">
      <stop
         id="stop3853"
         style="stop-color:#ef2929;stop-opacity:1"
         offset="0" />
      <stop
         id="stop3855"
         style="stop-color:#f46c6c;stop-opacity:1"
         offset="1" />
    </linearGradient>
    <linearGradient
       id="linearGradient3835">
      <stop
         id="stop3837"
         style="stop-color:#cc0000;stop-opacity:1"
         offset="0" />
      <stop
         id="stop3839"
         style="stop-color:#f40000;stop-opacity:1"
         offset="1" />
    </linearGradient>
    <linearGradient
       x1="18.935766"
       y1="23.667896"
       x2="53.588623"
       y2="26.649363"
       id="linearGradient2408"
       xlink:href="#linearGradient2402"
       gradientUnits="userSpaceOnUse" />
    <linearGradient
       x1="62.513836"
       y1="36.061237"
       x2="15.984863"
       y2="20.60858"
       id="linearGradient2386"
       xlink:href="#linearGradient2380"
       gradientUnits="userSpaceOnUse" />
    <linearGradient
       x1="46.834816"
       y1="45.264122"
       x2="45.380436"
       y2="50.939667"
       id="linearGradient1501"
       xlink:href="#linearGradient2871"
       gradientUnits="userSpaceOnUse" />
    <linearGradient
       id="linearGradient2871">
      <stop
         id="stop2873"
         style="stop-color:#3465a4;stop-opacity:1"
         offset="0" />
      <stop
         id="stop2875"
         style="stop-color:#3465a4;stop-opacity:1"
         offset="1" />
    </linearGradient>
    <linearGradient
       id="linearGradient2380">
      <stop
         id="stop2382"
         style="stop-color:#b9cfe7;stop-opacity:1"
         offset="0" />
      <stop
         id="stop2384"
         style="stop-color:#729fcf;stop-opacity:1"
         offset="1" />
    </linearGradient>
    <linearGradient
       id="linearGradient2402">
      <stop
         id="stop2404"
         style="stop-color:#729fcf;stop-opacity:1"
         offset="0" />
      <stop
         id="stop2406"
         style="stop-color:#528ac5;stop-opacity:1"
         offset="1" />
    </linearGradient>
    <linearGradient
       x1="18.935766"
       y1="23.667896"
       x2="53.588623"
       y2="26.649363"
       id="linearGradient4015"
       xlink:href="#linearGradient2402"
       gradientUnits="userSpaceOnUse" />
    <linearGradient
       x1="46.834816"
       y1="45.264122"
       x2="45.380436"
       y2="50.939667"
       id="linearGradient4017"
       xlink:href="#linearGradient2871"
       gradientUnits="userSpaceOnUse" />
    <linearGradient
       x1="62.513836"
       y1="36.061237"
       x2="15.984863"
       y2="20.60858"
       id="linearGradient4023"
       xlink:href="#linearGradient2380"
       gradientUnits="userSpaceOnUse" />
    <linearGradient
       x1="22.423439"
       y1="46.465717"
       x2="18.838751"
       y2="0.077135481"
       id="linearGradient4059"
       xlink:href="#linearGradient3851"
       gradientUnits="userSpaceOnUse"
       gradientTransform="matrix(0.9999489,0,0,0.9999262,-1.0267521e-3,4.08658e-5)" />
    <linearGradient
       x1="22.394438"
       y1="46.621788"
       x2="19.290001"
       y2="0.5"
       id="linearGradient4063"
       xlink:href="#linearGradient3835"
       gradientUnits="userSpaceOnUse"
       gradientTransform="matrix(0.9999489,0,0,0.9999262,-1.0267521e-3,4.08658e-5)" />
  </defs>
  <path
     d="M 23.49777,0.99996717 C 40.507603,12.196644 41.11716,21.546822 38.93448,29.154139 C 38.457033,30.818191 37.656611,32.323669 36.528353,33.560064 L 19.247987,17.186272 L 25.091438,11.342953 L 17.873058,10.061798 L 8.0298122,19.904822 L 12.279594,24.154509 L 16.935606,19.498602 L 32.934788,36.091127 C 28.252328,38.12666 21.091682,37.514049 11.623378,32.216414 L 9.8422195,34.434999 C 9.4644891,34.164259 8.5317813,33.835921 7.8110734,34.684981 C 7.1142862,35.505866 8.0790331,36.420606 7.7173282,37.028558 C 7.3956116,37.569304 7.3006248,37.558296 5.2487046,38.778429 C 1.1688036,41.204455 0.29413609,44.479836 1.4988965,45.621674 C 2.674561,46.735931 6.1219183,45.376678 8.092309,40.809529 C 8.9258263,38.877527 8.7370342,39.15336 9.3734935,38.4972 C 9.9104603,37.943613 10.895075,38.687107 11.529633,37.997237 C 12.201975,37.266291 11.80405,36.232117 11.529633,35.872393 L 12.123352,35.216192 C 21.650138,43.453219 31.255052,44.655473 37.809537,41.184501 L 43.246759,46.809085 C 43.714582,47.276897 44.888146,46.855111 45.871625,45.871655 C 46.855103,44.8882 47.2769,43.74591 46.809077,43.278097 L 41.559346,38.340961 C 44.010089,35.764183 45.594075,32.234328 45.96537,27.997974 C 47.275189,13.053441 35.328715,4.3154444 23.49777,0.99996717 z"
     id="path6570"
     style="fill:url(#linearGradient4063);fill-opacity:1;stroke:#a40000;stroke-width:0.99993753;stroke-opacity:1" />
  <path
     d="M 23.49777,0.99996717 C 40.507603,12.196644 41.11716,21.546822 38.93448,29.154139 C 38.457033,30.818191 37.656611,32.323669 36.528353,33.560064 L 19.247987,17.186272 L 25.091438,11.342953 L 17.873058,10.061798 L 8.0298122,19.904822 L 12.279594,24.154509 L 16.935606,19.498602 L 32.934788,36.091127 C 28.252328,38.12666 21.091682,37.514049 11.623378,32.216414 L 9.8422195,34.434999 C 9.4644891,34.164259 8.5317813,33.835921 7.8110734,34.684981 C 7.1142862,35.505866 8.0790331,36.420606 7.7173282,37.028558 C 7.3956116,37.569304 7.3006248,37.558296 5.2487046,38.778429 C 1.1688036,41.204455 0.29413609,44.479836 1.4988965,45.621674 C 2.674561,46.735931 6.1219183,45.376678 8.092309,40.809529 C 8.9258263,38.877527 8.7370342,39.15336 9.3734935,38.4972 C 9.9104603,37.943613 10.895075,38.687107 11.529633,37.997237 C 12.201975,37.266291 11.80405,36.232117 11.529633,35.872393 L 12.123352,35.216192 C 21.650138,43.453219 31.255052,44.655473 37.809537,41.184501 L 43.246759,46.809085 C 43.714582,47.276897 44.888146,46.855111 45.871625,45.871655 C 46.855103,44.8882 47.2769,43.74591 46.809077,43.278097 L 41.559346,38.340961 C 44.010089,35.764183 45.594075,32.234328 45.96537,27.997974 C 47.275189,13.053441 35.328715,4.3154444 23.49777,0.99996717 z"
     id="path3241"
     style="fill:none;fill-opacity:1;stroke:#ef2929;stroke-width:0;marker-start:none;stroke-miterlimit:4;stroke-dasharray:none;stroke-opacity:1" />
  <path
     d="M 9.388286,19.917358 L 18.204542,11.057221 L 23.097565,11.982908 L 17.851891,17.22846 L 36.630516,34.992815 C 37.523051,33.88337 38.414856,32.785777 38.993759,31.591443 C 40.878847,27.702312 41.196047,22.57538 40.311303,18.914531 C 39.644597,16.155864 38.64468,14.4272 37.086378,12.075189 C 34.90945,8.7894575 32.24363,6.4695554 29.908121,4.4561988 C 29.908121,4.4561988 29.908121,4.4561988 29.908121,4.4561988 C 32.931108,5.8902676 36.490768,7.9823749 39.847307,11.798964 C 41.427052,13.595232 42.523482,15.065934 43.992091,18.859431 C 44.670107,20.610787 45.087908,23.39908 45.092507,25.779991 C 45.101576,30.519846 43.780592,34.756041 40.15702,38.431078 C 40.15702,38.431078 42.361083,40.333883 46.019829,43.897032 C 45.843505,44.558237 44.444379,46.366063 43.683521,45.880644 C 41.316825,43.323081 37.952955,39.929807 37.952955,39.929807 C 35.329005,41.802718 28.123745,43.634563 20.276362,39.577166 C 15.567732,37.142623 12.055203,33.846726 12.055203,33.846726 L 10.291952,35.74218 C 10.291952,35.74218 11.258806,37.10618 10.842968,37.32907 C 9.7787279,37.15326 9.079717,37.461311 9.079717,37.461311 C 7.8325289,38.329496 7.502256,39.886727 6.8095311,41.230175 C 6.05961,42.684545 4.8388291,44.223911 3.3050693,44.822719 C 2.1700581,45.265849 2.0308739,44.989207 1.9385495,43.985192 C 2.3234729,42.770206 2.7497749,42.182819 3.183913,41.715737 C 3.8620345,40.986157 4.1813993,40.688632 5.3328083,39.863685 C 7.0265849,38.650151 7.8331789,38.764188 8.5066604,37.549472 C 9.1867234,36.391256 8.3252215,35.785118 8.5948229,35.257297 C 8.8644244,34.729475 10.071577,35.808237 10.071546,35.8083 C 10.502372,35.122701 11.228082,34.289665 11.878879,33.494083 C 13.995515,34.670774 16.275081,35.685443 18.260893,36.374031 C 20.704233,37.221269 22.700769,37.630362 23.406133,37.769873 C 26.948897,38.470579 30.652044,38.246244 34.64686,36.491544 L 16.926185,18.110066 L 12.253569,22.782576 L 9.388286,19.917358 z"
     id="path3760"
     style="fill:none;fill-opacity:1;fill-rule:evenodd;stroke:url(#linearGradient4059);stroke-width:0.99993753;stroke-linecap:round;stroke-linejoin:miter;stroke-miterlimit:4;stroke-dasharray:none;stroke-opacity:1" />
  <path
     d="M 26.602026,2.5387064 C 26.602026,2.5387064 29.048537,4.3570182 29.676694,4.8859815 L 30.19465,4.0374361 C 29.081867,3.4991238 27.622791,2.8759059 26.602026,2.5387064 z"
     id="path3762"
     style="fill:#f36464;fill-opacity:1;fill-rule:evenodd;stroke:none;stroke-width:1px;stroke-linecap:butt;stroke-linejoin:miter;stroke-opacity:1" />
</svg>
